<?xml version="1.0" encoding="iso-8859-1"?>
<!-- Uploaded to: SVG Repo, www.svgrepo.com, Generator: SVG Repo Mixer Tools -->
<svg height="800px" width="800px" version="1.1" id="Layer_1" xmlns="http://www.w3.org/2000/svg" xmlns:xlink="http://www.w3.org/1999/xlink" 
	 viewBox="0 0 512 512" xml:space="preserve">
<path style="fill:#5AC779;" d="M362.042,245.93H145.794c-21.92,0-39.752,17.832-39.752,39.752v202.468
	c0,13.152,10.699,23.851,23.851,23.851h248.05c13.152,0,23.851-10.699,23.851-23.851V285.681
	C401.794,263.762,383.961,245.93,362.042,245.93z"/>
<path style="fill:#AFF078;" d="M362.042,245.93h-40.282l-55.524,79.977c-6.38,7.716-18.219,7.685-24.56-0.064l-55.601-79.913
	h-40.282c-21.955,0-39.752,17.797-39.752,39.752v202.468c0,13.172,10.679,23.851,23.851,23.851h248.05
	c13.172,0,23.851-10.679,23.851-23.851V285.681C401.794,263.727,383.996,245.93,362.042,245.93z"/>
<path style="fill:#F2F2F2;" d="M260.41,312.991l49.866-67.061H199.502l48.07,66.954C250.711,317.257,257.198,317.311,260.41,312.991
	z"/>
<path style="fill:#5AC779;" d="M141.554,488.149V285.681c0-21.92,17.832-39.752,39.752-39.752h-35.511
	c-21.92,0-39.752,17.832-39.752,39.752v202.468c0,13.152,10.699,23.851,23.851,23.851h35.511
	C152.253,512,141.554,501.301,141.554,488.149z"/>
<path style="fill:#F7EDBC;" d="M311.16,0H196.676c-21.92,0-39.752,17.832-39.752,39.752v107.006
	c0,53.704,43.182,97.716,96.26,98.109c0.248,0.001,0.493,0.002,0.741,0.002c25.775,0,50.015-9.982,68.322-28.154
	c18.485-18.348,28.666-42.796,28.666-68.84V39.75C350.912,17.832,333.079,0,311.16,0z"/>
<path style="fill:#FFD652;" d="M190.316,146.757V39.752C190.316,17.832,208.148,0,230.067,0h-33.391
	c-21.92,0-39.752,17.832-39.752,39.752v107.006c0,53.704,43.182,97.716,96.26,98.109c0.248,0.001,0.493,0.002,0.741,0.002
	c5.671,0,11.262-0.511,16.737-1.459C225.131,235.377,190.316,194.978,190.316,146.757z"/>
<path style="fill:#B2B2B2;" d="M311.16,0H196.676c-21.92,0-39.752,17.832-39.752,39.752v78.443c0,2.719,1.391,5.25,3.686,6.71
	c1.295,0.824,2.777,1.24,4.266,1.24c1.148,0,2.301-0.249,3.374-0.752l130.282-61.07l38.46,43.704
	c2.185,2.484,5.679,3.354,8.775,2.187c3.094-1.168,5.143-4.13,5.143-7.438V39.752C350.912,17.832,333.079,0,311.16,0z"/>
<path style="fill:#808080;" d="M190.316,39.752C190.316,17.832,208.148,0,230.067,0h-33.391c-21.92,0-39.752,17.832-39.752,39.752
	v78.443c0,2.719,1.391,5.25,3.686,6.71c1.295,0.824,2.777,1.24,4.266,1.24c1.148,0,2.301-0.249,3.374-0.752l22.067-10.344V39.752
	H190.316z"/>
<path style="fill:#FFD652;" d="M423.525,203.528c-16.024,0-31.742,5.149-44.653,14.564l-38.942-5.99
	c-2.988-0.463-5.979,0.815-7.716,3.29c-1.737,2.474-1.921,5.72-0.472,8.374l18.921,34.688c-1.946,6.789-2.931,13.792-2.931,20.868
	c0,41.792,34.001,75.793,75.793,75.793s75.793-34.001,75.793-75.793S465.317,203.528,423.525,203.528z"/>
<path style="fill:#FB9D46;" d="M423.525,324.903c-36.609,0-67.236-26.09-74.271-60.652c-1.006,4.951-1.522,9.992-1.522,15.071
	c0,41.792,34.001,75.793,75.793,75.793s75.793-34.001,75.793-75.793c0-5.172-0.524-10.222-1.516-15.106
	C490.78,298.795,460.145,324.903,423.525,324.903z"/>
<path style="fill:#458FDE;" d="M166.101,233.757c-3.768-0.626-7.451,1.523-8.765,5.1c-0.461,1.024-3.889,7.586-28.728,45.234H20.633
	c-4.391,0-7.95,3.56-7.95,7.95v118.725c0,4.391,3.56,7.95,7.95,7.95h144.166c4.391,0,7.95-3.56,7.95-7.95V241.6
	C172.749,237.712,169.937,234.394,166.101,233.757z"/>
<path style="fill:#4F5AA8;" d="M40.85,410.766V292.041c0-4.391,3.56-7.95,7.95-7.95H20.633c-4.391,0-7.95,3.56-7.95,7.95v118.725
	c0,4.391,3.56,7.95,7.95,7.95h28.166C44.409,418.716,40.85,415.157,40.85,410.766z"/>
<g>
	<path style="fill:#4C4C4C;" d="M368.403,117.665c-4.391,0-7.95-3.56-7.95-7.95V39.752c0-13.152-10.699-23.851-23.851-23.851
		H171.235c-13.152,0-23.851,10.699-23.851,23.851v69.963c0,4.391-3.56,7.95-7.95,7.95c-4.391,0-7.95-3.56-7.95-7.95V39.752
		C131.483,17.832,149.315,0,171.235,0h165.366c21.92,0,39.752,17.832,39.752,39.752v69.963
		C376.353,114.105,372.793,117.665,368.403,117.665z"/>
	<path style="fill:#4C4C4C;" d="M253.918,223.669h-82.683c-21.92,0-39.752-17.832-39.752-39.752v-23.321
		c0-4.391,3.56-7.95,7.95-7.95c4.391,0,7.95,3.56,7.95,7.95v23.321c0,13.152,10.699,23.851,23.851,23.851h82.683
		c4.391,0,7.95,3.56,7.95,7.95S258.309,223.669,253.918,223.669z"/>
</g>
<g>
	<path style="fill:#FF7452;" d="M365.222,101.764h-22.261c-4.391,0-7.95,3.56-7.95,7.95v50.882c0,4.391,3.56,7.95,7.95,7.95h22.261
		c13.152,0,23.851-10.699,23.851-23.851v-19.081C389.073,112.463,378.373,101.764,365.222,101.764z"/>
	<path style="fill:#FF7452;" d="M164.875,101.764h-22.261c-13.152,0-23.851,10.699-23.851,23.851v19.081
		c0,13.152,10.699,23.851,23.851,23.851h22.261c4.391,0,7.95-3.56,7.95-7.95v-50.882
		C172.825,105.324,169.265,101.764,164.875,101.764z"/>
</g>
<g>
	<path style="fill:#4C4C4C;" d="M309.04,138.865H292.08c-4.391,0-7.95-3.56-7.95-7.95s3.56-7.95,7.95-7.95h16.961
		c4.391,0,7.95,3.56,7.95,7.95S313.431,138.865,309.04,138.865z"/>
	<path style="fill:#4C4C4C;" d="M215.757,138.865h-16.961c-4.391,0-7.95-3.56-7.95-7.95s3.56-7.95,7.95-7.95h16.961
		c4.391,0,7.95,3.56,7.95,7.95S220.147,138.865,215.757,138.865z"/>
	<path style="fill:#4C4C4C;" d="M253.918,193.988c-18.917,0-29.81-13.245-31.801-15.901c-2.634-3.512-1.922-8.496,1.59-11.13
		c3.513-2.634,8.496-1.923,11.13,1.59c0.732,0.976,7.49,9.54,19.081,9.54c1.22,0,12.126-0.267,19.081-9.54
		c2.634-3.512,7.619-4.223,11.13-1.59c3.512,2.634,4.224,7.619,1.59,11.13C274.368,193.221,257.237,193.988,253.918,193.988z"/>
</g>
<g>
	<path style="fill:#00A085;" d="M245.438,343.453h-50.882c-4.391,0-7.95,3.56-7.95,7.95c0,4.391,3.56,7.95,7.95,7.95h42.932v34.981
		h-42.932c-4.391,0-7.95,3.56-7.95,7.95v50.882c0,4.391,3.56,7.95,7.95,7.95h50.882c4.391,0,7.95-3.56,7.95-7.95
		c0-4.391-3.56-7.95-7.95-7.95h-42.932v-34.981h42.932c4.391,0,7.95-3.56,7.95-7.95v-50.882
		C253.388,347.013,249.828,343.453,245.438,343.453z"/>
	<path style="fill:#00A085;" d="M338.721,411.296h-13.251v-38.692c0-4.391-3.56-7.95-7.95-7.95s-7.95,3.56-7.95,7.95v38.692h-26.501
		v-59.892c0-4.391-3.56-7.95-7.95-7.95s-7.95,3.56-7.95,7.95v67.843c0,4.391,3.56,7.95,7.95,7.95h34.451v25.971
		c0,4.391,3.56,7.95,7.95,7.95s7.95-3.56,7.95-7.95v-25.971h13.251c4.391,0,7.95-3.56,7.95-7.95
		C346.672,414.856,343.112,411.296,338.721,411.296z"/>
</g>
<g>
	<path style="fill:#E24642;" d="M423.525,321.193c-4.391,0-7.95-3.56-7.95-7.95v-38.161c0-4.391,3.56-7.95,7.95-7.95
		s7.95,3.56,7.95,7.95v38.161C431.475,317.633,427.915,321.193,423.525,321.193z"/>
	<path style="fill:#E24642;" d="M423.525,261.83c-4.391,0-7.95-3.56-7.95-7.95v-4.24c0-4.391,3.56-7.95,7.95-7.95
		s7.95,3.56,7.95,7.95v4.24C431.475,258.271,427.915,261.83,423.525,261.83z"/>
</g>
<g>
	<path style="fill:#89DCFC;" d="M88.552,372.075c-4.391,0-7.95-3.56-7.95-7.95v-8.48c0-4.391,3.56-7.95,7.95-7.95
		c7.307,0,13.251-5.944,13.251-13.251c0-7.307-5.944-13.251-13.251-13.251c-7.307,0-13.251,5.944-13.251,13.251
		c0,4.391-3.56,7.95-7.95,7.95c-4.391,0-7.95-3.56-7.95-7.95c0-16.074,13.077-29.151,29.151-29.151s29.151,13.077,29.151,29.151
		c0,13.319-8.979,24.58-21.201,28.049v1.632C96.502,368.515,92.942,372.075,88.552,372.075z"/>
	<path style="fill:#89DCFC;" d="M88.552,397.516c-4.391,0-7.95-3.56-7.95-7.95v-4.24c0-4.391,3.56-7.95,7.95-7.95
		c4.391,0,7.95,3.56,7.95,7.95v4.24C96.502,393.956,92.942,397.516,88.552,397.516z"/>
</g>
</svg>