<?xml version="1.0" encoding="iso-8859-1"?>
<!-- Uploaded to: SVG Repo, www.svgrepo.com, Generator: SVG Repo Mixer Tools -->
<svg height="800px" width="800px" version="1.1" id="Layer_1" xmlns="http://www.w3.org/2000/svg" xmlns:xlink="http://www.w3.org/1999/xlink" 
	 viewBox="0 0 512 512" xml:space="preserve">
<path style="fill:#FCE6A0;" d="M256,10.199C120.248,10.199,10.199,120.248,10.199,256c0,42.712,10.901,82.875,30.062,117.87
	L11.337,500.663l126.791-28.924C173.125,490.9,213.288,501.801,256,501.801c135.752,0,245.801-110.048,245.801-245.801
	S391.752,10.199,256,10.199z"/>
<path style="fill:#74C1F2;" d="M339.633,359.012c46.753,0,84.653-37.9,84.653-84.653c0-44.41-34.205-80.808-77.705-84.346
	c-2.998-47.423-42.403-84.96-90.582-84.96s-87.585,37.537-90.582,84.96c-43.5,3.538-77.705,39.936-77.705,84.346
	c0,46.753,37.9,84.653,84.653,84.653H339.633z"/>
<path d="M256,512c-41.589,0-82.76-10.178-119.331-29.468L13.606,510.606c-3.418,0.78-7-0.251-9.48-2.732
	c-2.48-2.48-3.512-6.06-2.732-9.48l28.074-123.063C10.178,338.76,0,297.589,0,256c0-68.38,26.628-132.667,74.98-181.02
	S187.62,0,256,0s132.667,26.628,181.02,74.98S512,187.62,512,256s-26.628,132.667-74.98,181.02S324.38,512,256,512z
	 M138.129,461.539c1.7,0,3.386,0.425,4.899,1.253c34.423,18.846,73.488,28.809,112.973,28.809
	c129.911,0,235.602-105.69,235.602-235.602S385.911,20.398,256,20.398S20.398,126.089,20.398,256
	c0,39.484,9.963,78.549,28.81,112.973c1.197,2.187,1.551,4.735,0.997,7.166l-25.314,110.97l110.97-25.314
	C136.61,461.624,137.371,461.539,138.129,461.539z"/>
<path d="M351.881,455.496c-3.72,0-7.305-2.041-9.103-5.586c-2.549-5.023-0.544-11.161,4.479-13.711
	c36.47-18.507,66.162-47.25,85.865-83.117c2.713-4.937,8.914-6.74,13.849-4.029c4.937,2.712,6.741,8.913,4.029,13.849
	c-21.687,39.479-54.369,71.115-94.513,91.487C355.01,455.14,353.433,455.496,351.881,455.496z"/>
<path d="M293.725,474.997c-4.844,0-9.141-3.464-10.027-8.399c-0.995-5.544,2.693-10.846,8.237-11.84
	c5.856-1.052,11.734-2.379,17.47-3.948c5.435-1.482,11.044,1.716,12.529,7.148c1.486,5.433-1.714,11.043-7.148,12.529
	c-6.319,1.728-12.795,3.191-19.247,4.35C294.929,474.944,294.324,474.997,293.725,474.997z"/>
<path d="M339.633,369.211H172.367c-52.302,0-94.853-42.551-94.853-94.853c0-23.976,8.97-46.859,25.259-64.433
	c14.245-15.369,32.949-25.485,53.356-29.007c7.25-48.895,49.58-86.066,99.871-86.066s92.621,37.171,99.871,86.066
	c20.409,3.522,39.112,13.637,53.356,29.007c16.289,17.574,25.259,40.457,25.259,64.433
	C434.486,326.66,391.935,369.211,339.633,369.211z M256,115.251c-42.413,0-77.73,33.122-80.403,75.405
	c-0.319,5.057-4.302,9.112-9.352,9.522c-38.317,3.117-68.333,35.7-68.333,74.181c0,41.054,33.4,74.454,74.454,74.454h167.267
	c41.054,0,74.454-33.4,74.454-74.454c0-38.481-30.015-71.064-68.332-74.18c-5.05-0.411-9.032-4.466-9.352-9.522
	C333.73,148.373,298.413,115.251,256,115.251z"/>
</svg>