<?xml version="1.0" encoding="iso-8859-1"?>
<!-- Uploaded to: SVG Repo, www.svgrepo.com, Generator: SVG Repo Mixer Tools -->
<svg height="800px" width="800px" version="1.1" id="Layer_1" xmlns="http://www.w3.org/2000/svg" xmlns:xlink="http://www.w3.org/1999/xlink" 
	 viewBox="0 0 512.002 512.002" xml:space="preserve">
<path style="fill:#E1B872;" d="M378.829,482.003c0.28-0.146,0.557-0.297,0.837-0.444c3.513-1.848,6.984-3.766,10.402-5.763
	c-9.599-35.621-33.213-65.699-64.345-83.886c-20.398-11.774-44.479-18.757-69.723-18.757s-49.326,6.983-69.722,18.757
	c-31.132,18.186-54.746,48.263-64.345,83.886c39.362,23.002,85.153,36.199,134.032,36.206c0.001,0,0.001,0,0.002,0
	c0.012,0,0.022,0,0.034,0s0.022,0,0.034,0c0.001,0,0.001,0,0.002,0C300.331,511.994,342.092,501.155,378.829,482.003z"/>
<g>
	<path style="fill:#D5A150;" d="M325.723,391.909c-20.398-11.773-44.479-18.756-69.723-18.756l-45.131,29.587l45.131,28.267
		c29.264,0,57.387-10.721,79.188-30.188c0.581-0.518,1.184-1.066,1.771-1.594C333.338,396.61,329.588,394.167,325.723,391.909z"/>
	<path style="fill:#D5A150;" d="M330.051,438.793v62.756c9.599-2.777,18.975-6.083,28.095-9.878
		C354.108,471.273,344.115,453.016,330.051,438.793z"/>
</g>
<path style="fill:#C1BDAB;" d="M224.225,376.871c-13.532,3.194-26.338,8.335-37.948,15.037c-1.461,0.854-4.46,2.723-5.888,3.629
	V501.09c23.496,6.798,49.888,10.905,75.575,10.909c0.001,0,0.001,0,0.002,0c0.012,0,0.022,0,0.034,0s0.022,0,0.034,0
	c0.001,0,0.001,0,0.002,0c25.842-0.003,50.811-3.718,74.433-10.595C283.209,472.231,245.766,428.692,224.225,376.871z"/>
<path style="fill:#ECCE93;" d="M180.389,395.537c-28.29,18.404-49.452,46.837-58.457,80.257
	C161.303,498.803,207.108,512,255.999,512v-57.265c0-10.992-7.726-20.504-18.503-22.665
	C214.162,427.394,193.965,414.047,180.389,395.537z"/>
<path style="fill:#E1B872;" d="M153.854,491.669c8.624,3.589,17.482,6.723,26.535,9.402l23.141-20.606l-23.141-40.04
	C167.152,454.405,157.74,472.04,153.854,491.669z"/>
<path style="fill:#D5D2BD;" d="M255.999,454.735c0-10.992-7.726-20.504-18.503-22.663c-23.334-4.677-43.532-18.025-57.108-36.533
	v44.889v60.646v0.018c0.336,0.1,0.675,0.191,1.01,0.289c0.183,0.053,0.366,0.104,0.548,0.157
	c23.509,6.802,48.35,10.463,74.052,10.463V454.735z"/>
<path style="fill:#E1B872;" d="M435.344,193.808c-8.491,0-16.499,2.046-23.58,5.65c-18.707-70.766-77.578-134.247-148.269-138.476
	c-2.485-0.149-4.982-0.235-7.495-0.235c-57.086,0-107.264,38.955-136.113,90.392c-0.001,0-0.001-0.001-0.002-0.001h-0.001
	c-0.027,0.049-0.052,0.097-0.079,0.145c-0.989,1.768-1.953,3.55-2.892,5.346c-0.057,0.11-0.116,0.218-0.174,0.327
	c-0.959,1.844-1.892,3.703-2.795,5.574c-0.029,0.059-0.058,0.118-0.087,0.177c-0.927,1.922-1.825,3.856-2.691,5.804
	c-0.007,0.015-0.013,0.029-0.02,0.044c-0.878,1.973-1.726,3.957-2.541,5.954c-0.051,0.126-0.104,0.252-0.155,0.378
	c-0.757,1.862-1.483,3.734-2.185,5.614c-0.081,0.218-0.162,0.435-0.242,0.653c-0.678,1.837-1.331,3.683-1.954,5.537
	c-0.081,0.241-0.16,0.483-0.24,0.723c-0.619,1.861-1.215,3.728-1.778,5.604c-0.057,0.19-0.111,0.38-0.167,0.569
	c-0.581,1.951-1.136,3.906-1.656,5.87L210.33,396.281c13.921,7.549,29.603,11.584,45.672,11.584c23.524,0,46.228-8.64,63.775-24.308
	c26.391-23.566,64.379-60.802,84.499-95.898c8.673,6.46,19.425,10.285,31.071,10.285c28.756,0,52.068-23.311,52.068-52.068
	S464.1,193.808,435.344,193.808z"/>
<path style="fill:#ECCE93;" d="M255.999,219.842c-36.539,0-72.02,7.056-105.458,20.972l-0.569,0.094
	c-10.698,1.753-20.956-4.349-24.993-14.411c-4.707-11.73-13.561-21.348-24.752-27.042c-8.091-4.117-17.393-6.198-27.241-5.519
	c-26.371,1.819-47.42,23.614-48.365,50.03c-1.06,29.627,22.643,53.978,52.033,53.978c11.646,0,22.397-3.825,31.071-10.285
	c20.12,35.096,58.108,72.333,84.499,95.898c5.562,4.966,11.645,9.221,18.103,12.723c23.306-0.148,45.77-8.761,63.164-24.294
	c31.87-28.458,80.645-76.849,94.448-117.334c1.9-5.572-0.952-11.551-6.393-13.803c-0.03-0.013-0.061-0.025-0.091-0.038
	C328.021,226.898,292.539,219.842,255.999,219.842z"/>
<circle style="fill:#D5A150;" cx="435.344" cy="245.876" r="17.356"/>
<circle style="fill:#E1B872;" cx="76.655" cy="245.876" r="17.356"/>
<path style="fill:#C1BDAB;" d="M435.344,56.658c-0.077-0.079-0.15-0.161-0.229-0.238c-63.327-63.655-294.905-63.655-358.232,0
	c-0.078,0.078-0.152,0.16-0.229,0.238C41.608,92.168,40.218,158.082,56.996,197.66c6.066-2.476,12.7-3.852,19.657-3.852
	c0.931,0,1.857,0.027,2.777,0.075c0.301,0.016,0.596,0.047,0.894,0.068c0.618,0.043,1.237,0.086,1.849,0.15
	c0.347,0.037,0.69,0.088,1.034,0.132c0.559,0.071,1.117,0.14,1.67,0.228c0.359,0.057,0.713,0.126,1.068,0.191
	c0.533,0.096,1.067,0.193,1.594,0.305c0.356,0.076,0.709,0.162,1.062,0.245c0.522,0.123,1.043,0.248,1.559,0.386
	c0.345,0.093,0.686,0.193,1.027,0.292c0.52,0.15,1.037,0.307,1.549,0.473c0.326,0.106,0.651,0.218,0.975,0.33
	c0.523,0.18,1.041,0.369,1.556,0.567c0.303,0.117,0.605,0.235,0.906,0.358c0.531,0.215,1.058,0.44,1.579,0.671
	c0.274,0.121,0.548,0.244,0.82,0.371c0.547,0.255,1.088,0.521,1.625,0.793c0.237,0.12,0.474,0.24,0.709,0.363
	c0.575,0.303,1.141,0.62,1.703,0.944c0.187,0.109,0.377,0.213,0.563,0.324c0.625,0.37,1.238,0.757,1.846,1.151
	c0.115,0.075,0.233,0.147,0.347,0.222c0.717,0.476,1.422,0.966,2.114,1.475c0.002,0.001,0.005,0.003,0.007,0.005
	c2.876,2.12,5.526,4.529,7.909,7.183c0.021,0.024,0.044,0.044,0.066,0.068c6.333,6.998,16.352,9.228,25.071,5.599
	c35.552-14.795,74.551-22.97,115.461-22.97s79.909,8.175,115.461,22.97c8.72,3.629,18.74,1.399,25.071-5.599
	c0.021-0.023,0.044-0.044,0.066-0.068c2.382-2.654,5.032-5.063,7.909-7.183c0.002-0.001,0.005-0.003,0.007-0.005
	c0.692-0.509,1.397-1.001,2.114-1.475c0.115-0.076,0.233-0.148,0.347-0.222c0.607-0.396,1.221-0.781,1.846-1.151
	c0.186-0.111,0.376-0.216,0.563-0.324c0.561-0.324,1.128-0.64,1.703-0.944c0.235-0.124,0.472-0.243,0.709-0.363
	c0.537-0.273,1.077-0.538,1.625-0.793c0.272-0.126,0.546-0.249,0.82-0.371c0.523-0.231,1.048-0.456,1.579-0.671
	c0.301-0.121,0.603-0.241,0.906-0.358c0.515-0.198,1.034-0.385,1.556-0.567c0.324-0.112,0.648-0.223,0.975-0.33
	c0.513-0.167,1.03-0.322,1.549-0.473c0.341-0.1,0.683-0.199,1.027-0.292c0.516-0.138,1.037-0.264,1.559-0.386
	c0.354-0.083,0.706-0.169,1.062-0.245c0.528-0.112,1.061-0.209,1.594-0.305c0.356-0.064,0.71-0.134,1.068-0.191
	c0.553-0.088,1.112-0.157,1.67-0.228c0.345-0.044,0.687-0.095,1.034-0.132c0.612-0.065,1.23-0.108,1.849-0.15
	c0.299-0.021,0.595-0.052,0.894-0.068c0.92-0.049,1.846-0.075,2.777-0.075c6.957,0,13.591,1.375,19.657,3.852
	C471.78,158.082,470.389,92.168,435.344,56.658z"/>
<path style="fill:#D5D2BD;" d="M373.677,24.015c3.168,0.949,6.268,1.944,9.298,2.981C289.714-4.922,128.157,4.88,76.884,56.42
	c-0.078,0.078-0.152,0.16-0.229,0.238c-21.311,21.594-30.159,54.429-30.063,85.75c-0.003-0.937-0.008-1.874,0.006-2.815
	C141.566,75.57,253.223,34.416,373.677,24.015z"/>
<path style="fill:#ADA999;" d="M460.495,102.965c-8.724-0.368-17.492-0.565-26.308-0.565c-122.536,0-236.672,35.946-332.454,97.86
	c0.294,0.163,0.592,0.322,0.883,0.489c0.187,0.109,0.377,0.213,0.563,0.324c0.625,0.37,1.238,0.757,1.846,1.151
	c0.115,0.075,0.233,0.147,0.347,0.222c0.717,0.476,1.422,0.966,2.114,1.475c0.002,0.001,0.005,0.003,0.007,0.005
	c2.876,2.12,5.526,4.529,7.909,7.183c0.021,0.024,0.044,0.044,0.066,0.068c6.333,6.998,16.352,9.228,25.071,5.599
	c35.552-14.795,74.551-22.97,115.461-22.97s79.909,8.175,115.461,22.97c8.72,3.629,18.74,1.399,25.071-5.599
	c0.021-0.023,0.044-0.044,0.066-0.068c2.382-2.654,5.032-5.063,7.909-7.183c0.002-0.001,0.005-0.003,0.007-0.005
	c0.692-0.509,1.397-1.001,2.114-1.475c0.115-0.076,0.233-0.148,0.347-0.222c0.607-0.396,1.221-0.781,1.845-1.151
	c0.186-0.111,0.376-0.216,0.564-0.324c0.561-0.324,1.128-0.64,1.703-0.944c0.235-0.124,0.472-0.243,0.709-0.363
	c0.537-0.273,1.077-0.538,1.624-0.793c0.272-0.126,0.546-0.249,0.82-0.371c0.523-0.231,1.048-0.456,1.579-0.671
	c0.301-0.121,0.603-0.241,0.906-0.358c0.515-0.198,1.034-0.385,1.556-0.567c0.324-0.112,0.648-0.223,0.975-0.33
	c0.513-0.167,1.03-0.322,1.549-0.473c0.341-0.1,0.683-0.199,1.027-0.292c0.516-0.138,1.037-0.264,1.559-0.386
	c0.354-0.083,0.706-0.169,1.062-0.245c0.528-0.112,1.061-0.209,1.594-0.305c0.356-0.064,0.71-0.134,1.068-0.191
	c0.553-0.088,1.112-0.157,1.67-0.228c0.345-0.044,0.687-0.095,1.034-0.132c0.612-0.065,1.23-0.108,1.849-0.15
	c0.298-0.021,0.595-0.052,0.894-0.068c0.92-0.049,1.846-0.075,2.777-0.075c6.957,0,13.591,1.375,19.657,3.852
	C465.876,172.008,469.103,135.296,460.495,102.965z"/>
<path style="opacity:0.1;fill:#47423F;enable-background:new    ;" d="M435.344,56.658c-0.077-0.079-0.15-0.161-0.229-0.238
	C403.485,24.625,329.878,8.713,256.227,8.679c51.106,0.073,92.487,41.55,92.433,92.661c-0.001,0.904-0.015,1.805-0.042,2.702
	c-1.126,37.875-34.148,66.744-71.967,64.377c-6.85-0.429-13.735-0.644-20.654-0.644c-38.617,0-76.262,6.638-112.114,19.751
	c-6.496,2.375-13.707,1.071-19.153-3.191c-0.029-0.023-0.059-0.046-0.088-0.068l-1.509-1.147c-0.065-0.049-0.131-0.097-0.196-0.146
	l-1.969-1.451l-0.238-0.116c-0.321-0.219-0.644-0.437-0.968-0.653c-0.193-0.127-0.389-0.255-0.597-0.386
	c-0.889-0.576-1.784-1.136-2.662-1.659c-0.265-0.159-0.533-0.312-0.869-0.503c-0.855-0.494-1.717-0.974-2.551-1.413
	c-0.308-0.163-0.617-0.32-0.927-0.479l-0.174-0.088c-0.793-0.403-1.59-0.794-2.412-1.177c-0.41-0.191-0.824-0.376-1.252-0.567
	c-0.787-0.349-1.582-0.687-2.345-0.995c-0.461-0.187-0.924-0.37-1.372-0.542c-0.788-0.303-1.582-0.592-2.306-0.842
	c-0.502-0.175-1.007-0.347-1.526-0.515c-0.776-0.252-1.559-0.489-2.344-0.716c-0.502-0.146-1.004-0.29-1.488-0.42
	c-0.796-0.214-1.599-0.41-2.342-0.584l-0.167-0.039c-0.488-0.117-0.977-0.229-1.435-0.326c-0.757-0.163-1.522-0.307-2.288-0.445
	l-0.389-0.072c-0.461-0.084-0.922-0.168-1.341-0.233c-0.838-0.133-1.682-0.244-2.537-0.352l-0.14-0.02
	c-0.473-0.064-0.948-0.123-1.401-0.17c-0.916-0.096-1.842-0.167-2.702-0.226c-0.464-0.039-0.927-0.074-1.422-0.101
	c-1.404-0.073-2.79-0.11-4.119-0.11c-9.327,0-18.441,1.655-27.138,4.885c1.769,9.023,4.295,17.488,7.48,25.001
	c6.066-2.476,12.7-3.852,19.657-3.852c0.931,0,1.857,0.027,2.777,0.075c0.301,0.016,0.596,0.047,0.894,0.068
	c0.618,0.043,1.237,0.086,1.849,0.15c0.347,0.037,0.69,0.088,1.034,0.132c0.559,0.071,1.117,0.14,1.67,0.228
	c0.359,0.057,0.713,0.126,1.068,0.191c0.533,0.096,1.067,0.193,1.594,0.305c0.356,0.076,0.709,0.162,1.062,0.245
	c0.522,0.123,1.043,0.248,1.559,0.386c0.345,0.093,0.686,0.193,1.027,0.292c0.52,0.15,1.037,0.307,1.549,0.473
	c0.326,0.106,0.651,0.218,0.975,0.33c0.523,0.181,1.041,0.369,1.556,0.567c0.303,0.117,0.605,0.235,0.906,0.358
	c0.531,0.215,1.058,0.44,1.579,0.671c0.274,0.121,0.548,0.244,0.82,0.371c0.547,0.255,1.088,0.521,1.625,0.793
	c0.237,0.12,0.474,0.24,0.709,0.363c0.575,0.303,1.141,0.62,1.703,0.944c0.187,0.109,0.377,0.213,0.563,0.324
	c0.625,0.37,1.238,0.757,1.846,1.151c0.115,0.075,0.233,0.147,0.347,0.222c0.717,0.476,1.422,0.966,2.114,1.475
	c0.002,0.001,0.005,0.003,0.007,0.005c2.876,2.12,5.559,4.562,7.941,7.217c6.333,6.998,16.384,9.261,25.105,5.633
	c35.552-14.795,74.551-22.97,115.461-22.97s79.909,8.175,115.461,22.97c8.72,3.629,18.772,1.365,25.105-5.633
	c2.382-2.654,5.064-5.097,7.941-7.217c0.002-0.001,0.005-0.003,0.007-0.005c0.692-0.509,1.397-1.001,2.114-1.475
	c0.115-0.076,0.233-0.148,0.347-0.222c0.607-0.396,1.221-0.781,1.846-1.151c0.186-0.111,0.376-0.216,0.563-0.324
	c0.561-0.324,1.128-0.64,1.703-0.944c0.235-0.124,0.472-0.243,0.709-0.363c0.537-0.273,1.077-0.538,1.625-0.793
	c0.272-0.126,0.546-0.249,0.82-0.371c0.523-0.231,1.048-0.456,1.579-0.671c0.301-0.121,0.603-0.241,0.906-0.358
	c0.515-0.198,1.034-0.385,1.556-0.567c0.324-0.112,0.648-0.223,0.975-0.33c0.513-0.167,1.03-0.322,1.549-0.473
	c0.341-0.1,0.683-0.199,1.027-0.292c0.516-0.138,1.037-0.264,1.559-0.386c0.354-0.083,0.706-0.169,1.062-0.245
	c0.528-0.112,1.061-0.209,1.594-0.305c0.356-0.064,0.71-0.134,1.068-0.191c0.553-0.088,1.112-0.157,1.67-0.228
	c0.345-0.044,0.687-0.095,1.034-0.132c0.612-0.065,1.23-0.108,1.849-0.15c0.299-0.021,0.595-0.052,0.894-0.068
	c0.92-0.049,1.846-0.075,2.777-0.075c6.957,0,13.591,1.375,19.657,3.852c0.472-1.112,0.924-2.252,1.366-3.405
	c0.139-0.362,0.274-0.731,0.41-1.098c0.304-0.818,0.602-1.645,0.891-2.482c0.143-0.414,0.287-0.828,0.427-1.247
	c0.309-0.928,0.609-1.866,0.899-2.815c0.09-0.295,0.187-0.584,0.277-0.882c0.348-1.164,0.679-2.347,1-3.538
	c0.142-0.531,0.278-1.068,0.415-1.605c0.186-0.73,0.369-1.464,0.546-2.203c0.141-0.594,0.281-1.187,0.417-1.785
	c0.169-0.751,0.329-1.51,0.487-2.269c0.116-0.557,0.237-1.108,0.347-1.668v-0.002C470.035,134.15,463.737,85.427,435.344,56.658z"/>
<path style="fill:#848075;" d="M264.099,264.678c-3.756,0-6.944,2.389-8.153,5.727c-1.284-3.187-4.4-5.438-8.046-5.438
	c-19.14,0-34.712,15.572-34.712,34.712c0,4.793,3.884,8.678,8.678,8.678c17.048,0,31.256-12.357,34.159-28.584
	c3.02,16.084,17.16,28.295,34.108,28.295c4.794,0,8.678-3.885,8.678-8.678C298.811,280.25,283.239,264.678,264.099,264.678z"/>
<path style="fill:#989487;" d="M268.857,327.614L268.857,327.614c-7.972-4.532-17.741-4.532-25.713,0l0,0
	c-39.939,22.706-39.939,59.522,0,82.228l0,0c7.101,4.037,18.613,4.037,25.712,0l0,0C308.796,387.136,308.796,350.32,268.857,327.614
	z"/>
<path style="fill:#848075;" d="M224.347,395.144c4.752,5.296,11.004,10.268,18.796,14.699l0,0c7.101,4.037,18.613,4.037,25.712,0
	l0,0c27.395-15.574,35.993-37.785,25.809-57.528C286.855,392.823,258.313,400.537,224.347,395.144z"/>
<path d="M215.502,237.198c-4.794,0-8.678,3.885-8.678,8.678c0,4.786-3.892,8.678-8.678,8.678s-8.678-3.892-8.678-8.678
	c0-4.793-3.884-8.678-8.678-8.678s-8.678,3.885-8.678,8.678c0,14.356,11.679,26.034,26.034,26.034s26.034-11.678,26.034-26.034
	C224.18,241.083,220.296,237.198,215.502,237.198z"/>
<path d="M313.852,271.91c14.355,0,26.034-11.678,26.034-26.034c0-4.793-3.884-8.678-8.678-8.678c-4.794,0-8.678,3.885-8.678,8.678
	c0,4.786-3.892,8.678-8.678,8.678s-8.678-3.892-8.678-8.678c0-4.793-3.884-8.678-8.678-8.678c-4.794,0-8.678,3.885-8.678,8.678
	C287.818,260.231,299.498,271.91,313.852,271.91z"/>
<path d="M465.919,193.379c7.06-20.43,9.73-44.952,7.322-68.624c-2.176-21.388-9.445-51.623-31.699-74.172l-0.273-0.283
	c-15.183-15.26-38.176-26.476-64.532-34.395c-0.41-0.155-0.831-0.286-1.266-0.377C338.05,4.477,294.042,0,255.999,0
	C190.625,0,107.626,13.214,70.703,50.328l-0.223,0.235c-22.275,22.57-29.543,52.805-31.72,74.193
	c-2.41,23.686,0.265,48.225,7.336,68.662c-17.818,10.43-29.399,29.369-30.145,50.237c-0.596,16.658,5.437,32.424,16.988,44.395
	c11.553,11.976,27.08,18.571,43.716,18.571c4.794,0,8.678-3.885,8.678-8.678s-3.884-8.678-8.678-8.678
	c-11.884,0-22.975-4.712-31.229-13.266c-8.25-8.551-12.559-19.816-12.132-31.724c0.603-16.871,11.147-31.992,26.861-38.521
	c0.053-0.022,0.101-0.05,0.153-0.073c5.207-2.121,10.705-3.196,16.348-3.196c0.781,0,1.555,0.023,2.321,0.064l0.75,0.059
	c0.515,0.036,1.032,0.071,1.535,0.123c0.143,0.015,0.286,0.035,0.427,0.054l0.489,0.064c0.448,0.056,0.894,0.111,1.35,0.183
	c0.169,0.027,0.336,0.059,0.503,0.09l0.37,0.068c0.447,0.081,0.892,0.161,1.335,0.255c0.221,0.047,0.442,0.1,0.662,0.153
	l0.221,0.052c0.437,0.103,0.874,0.207,1.29,0.318c0.245,0.066,0.487,0.137,0.73,0.207l0.131,0.038
	c0.432,0.125,0.861,0.253,1.292,0.395c0.267,0.087,0.531,0.177,0.817,0.277c0.43,0.148,0.857,0.303,1.288,0.469
	c0.25,0.096,0.498,0.193,0.749,0.295c0.444,0.179,0.884,0.367,1.316,0.559c0.23,0.102,0.459,0.205,0.682,0.308
	c0.457,0.213,0.907,0.435,1.363,0.666l0.587,0.3c0.251,0.133,0.501,0.278,0.75,0.417c0.019,0.009,0.036,0.02,0.053,0.03
	c0.206,0.116,0.412,0.224,0.62,0.345l0.463,0.265c0.522,0.31,1.034,0.632,1.56,0.974l0.27,0.172c0.598,0.396,1.184,0.804,1.762,1.23
	c2.393,1.763,4.613,3.78,6.623,6.02c0.047,0.052,0.105,0.115,0.164,0.176c5.969,6.535,14.336,10.053,22.866,10.053
	c4,0,8.036-0.773,11.877-2.372c35.565-14.801,73.289-22.305,112.127-22.305s76.564,7.504,112.126,22.304
	c4.422,1.84,9.504-0.252,11.346-4.677c1.842-4.425-0.252-9.505-4.677-11.346c-37.687-15.684-77.655-23.636-118.796-23.636
	s-81.109,7.952-118.796,23.636c-5.309,2.21-11.458,0.839-15.372-3.486c-0.023-0.024-0.049-0.052-0.075-0.08
	c-1.415-1.569-2.918-3.064-4.492-4.481c26.286-16.208,53.895-30.445,82.242-42.397c4.415-1.862,6.486-6.952,4.625-11.368
	c-1.862-4.415-6.953-6.486-11.368-4.625c-31.677,13.356-62.457,29.491-91.57,47.98c-0.58-0.256-1.164-0.506-1.748-0.743
	c-0.354-0.143-0.709-0.283-1.061-0.418c-0.606-0.233-1.217-0.455-1.811-0.66c-0.384-0.134-0.767-0.265-1.149-0.388
	c-0.601-0.194-1.203-0.377-1.81-0.553l-0.123-0.036c-0.358-0.104-0.712-0.206-1.085-0.307c-0.602-0.161-1.207-0.308-1.802-0.447
	l-0.187-0.045c-0.355-0.084-0.708-0.168-1.063-0.243c-0.613-0.131-1.235-0.244-1.87-0.36l-0.288-0.052
	c-0.318-0.059-0.639-0.118-0.948-0.167c-0.632-0.101-1.269-0.182-1.951-0.267l-0.294-0.038c-0.303-0.04-0.605-0.08-0.918-0.113
	c-0.714-0.075-1.434-0.126-2.149-0.176l-0.233-0.02c-0.27-0.023-0.54-0.044-0.817-0.059c-1.104-0.058-2.191-0.087-3.229-0.087
	c-4.919,0-9.762,0.584-14.479,1.744c-4.331-12.775-6.778-27.484-7.026-42.535c24.471-16.266,50.157-31.079,76.442-44.03
	c4.3-2.119,6.068-7.321,3.949-11.619c-2.119-4.301-7.323-6.068-11.619-3.95c-23.117,11.389-45.777,24.19-67.593,38.119
	c2.938-22.86,11.37-44.774,26.529-60.134l0.177-0.187c27.303-27.449,95.195-45.184,172.96-45.184
	c22.894,0,44.918,1.548,65.316,4.417c-15.918,2.569-31.732,5.667-47.335,9.304c-4.668,1.088-7.569,5.754-6.482,10.422
	c0.934,4.005,4.501,6.71,8.443,6.71c0.651,0,1.316-0.074,1.977-0.228c31.007-7.228,62.859-12.312,94.704-15.147
	c24.792,7.605,44.413,17.718,56.305,29.673l0.24,0.248c8.523,8.636,14.912,19.354,19.402,31.145
	c-4.852-0.113-9.661-0.175-14.382-0.175c-23.256,0-46.693,1.298-69.663,3.86c-4.762,0.531-8.194,4.823-7.663,9.586
	c0.495,4.436,4.252,7.718,8.613,7.716c0.322,0,0.647-0.017,0.973-0.054c22.334-2.491,45.125-3.754,67.74-3.754
	c6.379,0,12.92,0.108,19.518,0.319c5.491,25.453,3.616,53.358-3.882,75.476c-4.716-1.158-9.561-1.744-14.479-1.744
	c-1.038,0-2.126,0.029-3.234,0.087c-0.272,0.015-0.543,0.036-0.812,0.059l-0.227,0.019c-0.721,0.05-1.441,0.102-2.161,0.177
	c-0.305,0.032-0.607,0.073-0.911,0.113l-0.339,0.044c-0.636,0.08-1.274,0.162-1.894,0.26c-0.32,0.05-0.641,0.109-0.959,0.168
	l-0.303,0.056c-0.62,0.112-1.242,0.226-1.854,0.356c-0.358,0.075-0.71,0.16-1.066,0.243l-0.175,0.042
	c-0.606,0.142-1.213,0.289-1.828,0.454c-0.36,0.096-0.714,0.199-1.071,0.303l-0.121,0.036c-0.607,0.176-1.211,0.359-1.806,0.552
	c-0.388,0.126-0.771,0.257-1.133,0.383c-0.616,0.213-1.226,0.434-1.826,0.665c-0.359,0.137-0.714,0.277-1.063,0.419
	c-0.618,0.251-1.231,0.511-1.844,0.783c-0.318,0.142-0.639,0.285-0.961,0.435c-0.638,0.296-1.267,0.605-1.885,0.92l-0.133,0.067
	c-0.236,0.12-0.473,0.241-0.699,0.36c-0.673,0.355-1.336,0.725-1.982,1.098l-0.147,0.083c-0.181,0.103-0.362,0.206-0.515,0.299
	c-0.728,0.432-1.443,0.881-2.194,1.369c-0.132,0.083-0.265,0.169-0.362,0.235c-0.838,0.554-1.662,1.128-2.48,1.731
	c-3.31,2.44-6.386,5.228-9.114,8.258c-0.027,0.028-0.053,0.056-0.075,0.08c-3.257,3.515-3.049,9.005,0.465,12.264
	c3.476,3.219,8.875,3.055,12.143-0.339c0.094-0.096,0.2-0.208,0.28-0.299c1.986-2.213,4.206-4.229,6.601-5.995
	c0.576-0.423,1.163-0.833,1.82-1.267l0.228-0.146c0.507-0.33,1.019-0.653,1.565-0.977l0.452-0.258
	c0.465-0.27,0.935-0.532,1.42-0.788l0.587-0.299c0.448-0.228,0.898-0.45,1.348-0.66c0.228-0.106,0.458-0.208,0.684-0.309
	c0.436-0.193,0.876-0.382,1.325-0.562c0.248-0.101,0.495-0.198,0.751-0.296c0.423-0.163,0.85-0.317,1.303-0.473
	c0.265-0.093,0.528-0.183,0.801-0.272c0.426-0.139,0.855-0.266,1.288-0.392l0.13-0.038c0.243-0.071,0.485-0.141,0.715-0.204
	c0.432-0.116,0.868-0.219,1.318-0.325l0.209-0.05c0.22-0.052,0.441-0.105,0.664-0.153c0.442-0.094,0.887-0.174,1.319-0.251
	l0.385-0.071c0.168-0.031,0.333-0.062,0.514-0.091c0.444-0.071,0.892-0.125,1.39-0.187l0.439-0.058
	c0.141-0.02,0.283-0.039,0.42-0.053c0.51-0.053,1.027-0.088,1.548-0.124l0.741-0.059c0.771-0.041,1.545-0.064,2.326-0.064
	c5.653,0,11.162,1.08,16.378,3.207c0.116,0.047,0.234,0.081,0.351,0.123c0.053,0.024,0.103,0.053,0.156,0.076
	c16.101,6.809,26.504,22.504,26.504,39.983c0,23.926-19.464,43.39-43.39,43.39c-6.898,0-13.548-1.598-19.572-4.656
	c7.226-14.283,10.894-27.287,10.894-38.734c0-4.786,3.892-8.678,8.678-8.678c4.786,0,8.678,3.892,8.678,8.678
	c0,4.793,3.884,8.678,8.678,8.678c4.794,0,8.678-3.885,8.678-8.678c0-14.356-11.679-26.034-26.034-26.034
	s-26.034,11.678-26.034,26.034c0,10.312-4.22,22.905-12.543,37.431c-0.007,0.012-0.015,0.023-0.023,0.035
	c-19.272,33.617-55.637,69.533-82.751,93.743c-2.985,2.666-6.147,5.108-9.454,7.327c1.945-5.055,2.948-10.307,2.948-15.683
	c0-18.786-12.197-36.067-34.344-48.658c-4.169-2.37-9.465-0.912-11.833,3.255c-2.37,4.167-0.912,9.464,3.255,11.833
	c16.487,9.373,25.566,21.295,25.566,33.57c0,10.74-6.95,21.21-19.731,29.938c-0.08,0.052-0.162,0.102-0.241,0.157
	c-1.759,1.192-3.62,2.352-5.594,3.475c-4.404,2.504-12.731,2.505-17.135,0c-16.487-9.373-25.566-21.295-25.566-33.57
	c0-12.275,9.079-24.198,25.566-33.57c4.167-2.368,5.623-7.667,3.255-11.833c-2.367-4.167-7.662-5.623-11.833-3.255
	c-22.147,12.591-34.344,29.872-34.344,48.658c0,5.358,0.996,10.593,2.929,15.633c-3.306-2.219-6.474-4.634-9.435-7.277
	c-27.116-24.212-63.482-60.129-82.752-93.742c-8.334-14.545-12.562-27.152-12.562-37.469c0-2.04-0.258-4.126-0.767-6.205
	c-2.861-11.675-13.252-19.829-25.267-19.829c-14.355,0-26.034,11.678-26.034,26.034c0,4.793,3.884,8.678,8.678,8.678
	s8.678-3.885,8.678-8.678c0-4.784,3.892-8.678,8.678-8.678c3.999,0,7.456,2.716,8.41,6.603c0.181,0.737,0.268,1.416,0.268,2.075
	c0,13.385,5,28.895,14.862,46.099c19.107,33.329,53.372,68.169,80.696,93.047c-1.687,1.003-3.355,2.034-4.996,3.102
	c-0.198,0.12-0.39,0.246-0.577,0.381c-30.114,19.808-52.435,50.405-61.764,85.033c-1.247,4.628,1.493,9.39,6.121,10.637
	c0.756,0.204,1.516,0.301,2.263,0.301c3.826,0,7.33-2.551,8.373-6.423c6.81-25.274,21.479-48.118,41.4-65.159v24.165
	c-13.379,15.034-22.476,33.256-26.369,52.925c-0.93,4.701,2.127,9.267,6.828,10.198c0.568,0.112,1.135,0.167,1.694,0.167
	c4.059,0,7.686-2.863,8.504-6.994c1.815-9.17,4.98-17.966,9.343-26.15v33.867c0,4.793,3.884,8.678,8.678,8.678
	s8.678-3.885,8.678-8.678V400.356c0.491-0.296,0.978-0.598,1.473-0.887l4.591-2.496c3.536,2.534,7.229,4.857,11.062,6.935
	c8.465,4.59,17.511,7.966,26.901,10.076c22.681,38.533,54.75,71.304,92.818,94.805c1.421,0.877,2.994,1.295,4.551,1.295
	c2.91,0,5.752-1.463,7.392-4.121c2.518-4.077,1.252-9.425-2.826-11.942c-30.174-18.628-56.31-43.482-76.52-72.549
	c5.272-0.327,10.418-1.686,14.639-4.084c1.891-1.075,3.703-2.186,5.446-3.327c13.777-3.049,26.781-8.86,38.205-17.033l4.717,2.475
	c29.443,17.26,51.37,45.88,60.174,78.552c1.044,3.872,4.548,6.423,8.374,6.423c0.747,0,1.508-0.097,2.263-0.301
	c4.628-1.247,7.368-6.01,6.121-10.637c-9.896-36.73-34.412-68.923-67.339-88.516c25.219-22.962,56.351-54.409,76.025-85.33
	c8.648,4.555,18.248,6.93,28.213,6.93c33.495,0,60.746-27.25,60.746-60.746C496.09,224.019,484.463,204.164,465.919,193.379z"/>
<path d="M336.222,432.691c-3.369-3.409-8.864-3.439-12.272-0.071c-3.408,3.369-3.44,8.864-0.069,12.272
	c13.217,13.369,22.122,30.126,25.752,48.461c0.818,4.133,4.445,6.994,8.504,6.994c0.558,0,1.126-0.054,1.695-0.168
	c4.701-0.93,7.758-5.496,6.827-10.197C362.365,468.299,351.84,448.488,336.222,432.691z"/>
<path d="M230.518,145.718c0.956,0,1.929-0.16,2.881-0.495c30.167-10.62,61.441-18.881,92.951-24.555
	c4.716-0.849,7.852-5.362,7.003-10.078c-0.848-4.717-5.372-7.854-10.078-7.003c-32.422,5.837-64.599,14.338-95.638,25.266
	c-4.521,1.591-6.896,6.547-5.304,11.066C223.589,143.487,226.94,145.718,230.518,145.718z"/>
<path d="M264.388,42.272c-1.228-4.633-5.979-7.396-10.61-6.167c-17.938,4.75-35.904,10.285-53.397,16.453
	c-4.519,1.593-6.891,6.55-5.298,11.07c1.258,3.566,4.606,5.795,8.184,5.795c0.957,0,1.931-0.16,2.886-0.496
	c17.059-6.014,34.578-11.413,52.069-16.045C262.854,51.656,265.616,46.905,264.388,42.272z"/>
<path d="M261.488,272.894c-1.251,4.957,1.754,9.989,6.711,11.239c7.464,1.883,12.678,8.573,12.678,16.269
	c0,5.112,4.145,9.257,9.257,9.257c5.112,0,9.256-4.145,9.256-9.257c0-16.188-10.964-30.259-26.662-34.219
	C267.767,264.93,262.739,267.937,261.488,272.894z"/>
<path d="M221.866,309.948c5.112,0,9.257-4.145,9.257-9.257c0-7.696,5.214-14.386,12.678-16.269
	c4.957-1.251,7.962-6.283,6.711-11.239c-1.251-4.958-6.276-7.964-11.24-6.711c-15.698,3.959-26.662,18.031-26.662,34.219
	C212.609,305.803,216.754,309.948,221.866,309.948z"/>
</svg>