<?xml version="1.0" encoding="iso-8859-1"?>
<!-- Uploaded to: SVG Repo, www.svgrepo.com, Generator: SVG Repo Mixer Tools -->
<svg height="800px" width="800px" version="1.1" id="Layer_1" xmlns="http://www.w3.org/2000/svg" xmlns:xlink="http://www.w3.org/1999/xlink" 
	 viewBox="0 0 512 512" xml:space="preserve">
<g transform="translate(1 1)">
	<g>
		<path style="fill:#FFA800;" d="M502.467,348.867h-281.6v-307.2c0-18.773,15.36-34.133,34.133-34.133h213.333
			c18.773,0,34.133,15.36,34.133,34.133V348.867z"/>
		<path style="fill:#FFA800;" d="M468.333,417.133H255c-18.773,0-34.133-15.36-34.133-34.133v-34.133h281.6V383
			C502.467,401.773,487.107,417.133,468.333,417.133"/>
	</g>
	<g>
		<path style="fill:#FFFFFF;" d="M289.133,348.867H7.533v-307.2c0-18.773,15.36-34.133,34.133-34.133H255
			c18.773,0,34.133,15.36,34.133,34.133V348.867z"/>
		<path style="fill:#FFFFFF;" d="M255,417.133H41.667c-18.773,0-34.133-15.36-34.133-34.133v-34.133h281.6V383
			C289.133,401.773,273.773,417.133,255,417.133"/>
	</g>
	<g>
		<path style="fill:#FFE100;" d="M476.867,348.867H33.133v-307.2c0-18.773,15.36-34.133,34.133-34.133h375.467
			c18.773,0,34.133,15.36,34.133,34.133V348.867z"/>
		<path style="fill:#FFE100;" d="M442.733,417.133H67.267c-18.773,0-34.133-15.36-34.133-34.133v-34.133h443.733V383
			C476.867,401.773,461.507,417.133,442.733,417.133"/>
	</g>
	<polygon style="fill:#3DB9F9;" points="58.733,161.133 229.4,161.133 229.4,50.2 58.733,50.2 	"/>
	<polygon style="fill:#63D3FD;" points="58.733,161.133 203.8,161.133 203.8,50.2 58.733,50.2 	"/>
	<polygon style="fill:#00AD55;" points="41.667,314.733 459.8,314.733 459.8,280.6 41.667,280.6 	"/>
	<polygon style="fill:#00DA6C;" points="50.2,314.733 434.2,314.733 434.2,280.6 50.2,280.6 	"/>
	<g>
		<path style="fill:#E4667F;" d="M297.667,92.867c0,28.16,23.04,51.2,51.2,51.2c28.16,0,51.2-23.04,51.2-51.2s-23.04-51.2-51.2-51.2
			C320.707,41.667,297.667,64.707,297.667,92.867"/>
		<path style="fill:#E4667F;" d="M312.173,170.52c11.093,5.12,23.893,7.68,36.693,7.68c12.8,0,25.6-2.56,36.693-7.68
			c23.893,12.8,40.107,38.4,40.107,67.413V280.6h-153.6v-42.667C272.067,208.92,288.28,183.32,312.173,170.52"/>
	</g>
	<path d="M229.4,169.667H58.733c-5.12,0-8.533-3.413-8.533-8.533V50.2c0-5.12,3.413-8.533,8.533-8.533H229.4
		c5.12,0,8.533,3.413,8.533,8.533v110.933C237.933,166.253,234.52,169.667,229.4,169.667z M67.267,152.6h153.6V58.733h-153.6V152.6z
		"/>
	<path d="M229.4,212.333h-42.667c-5.12,0-8.533-3.413-8.533-8.533c0-5.12,3.413-8.533,8.533-8.533H229.4
		c5.12,0,8.533,3.413,8.533,8.533C237.933,208.92,234.52,212.333,229.4,212.333z"/>
	<path d="M152.6,212.333H58.733c-5.12,0-8.533-3.413-8.533-8.533c0-5.12,3.413-8.533,8.533-8.533H152.6
		c5.12,0,8.533,3.413,8.533,8.533C161.133,208.92,157.72,212.333,152.6,212.333z"/>
	<path d="M229.4,246.467h-93.867c-5.12,0-8.533-3.413-8.533-8.533c0-5.12,3.413-8.533,8.533-8.533H229.4
		c5.12,0,8.533,3.413,8.533,8.533C237.933,243.053,234.52,246.467,229.4,246.467z"/>
	<path d="M101.4,246.467H58.733c-5.12,0-8.533-3.413-8.533-8.533c0-5.12,3.413-8.533,8.533-8.533H101.4
		c5.12,0,8.533,3.413,8.533,8.533C109.933,243.053,106.52,246.467,101.4,246.467z"/>
	<path d="M502.467,357.4H7.533c-5.12,0-8.533-3.413-8.533-8.533v-307.2C-1,17.773,17.773-1,41.667-1h426.667
		C492.227-1,511,17.773,511,41.667v307.2C511,353.987,507.587,357.4,502.467,357.4z M16.067,340.333h477.867V41.667
		c0-14.507-11.093-25.6-25.6-25.6H41.667c-14.507,0-25.6,11.093-25.6,25.6V340.333z"/>
	<path d="M468.333,425.667H41.667C17.773,425.667-1,406.893-1,383v-34.133c0-5.12,3.413-8.533,8.533-8.533h494.933
		c5.12,0,8.533,3.413,8.533,8.533V383C511,406.893,492.227,425.667,468.333,425.667z M16.067,357.4V383
		c0,14.507,11.093,25.6,25.6,25.6h426.667c14.507,0,25.6-11.093,25.6-25.6v-25.6H16.067z"/>
	<path d="M331.8,511H178.2c-2.56,0-5.12-0.853-6.827-3.413c-1.707-2.56-1.707-5.12-1.707-7.68l25.6-85.333
		c0.853-3.413,4.267-5.973,8.533-5.973h102.4c3.413,0,6.827,2.56,8.533,5.973l25.6,85.333c0.853,2.56,0,5.12-1.707,7.68
		C336.92,510.147,334.36,511,331.8,511z M189.293,493.933h130.56l-20.48-68.267h-89.6L189.293,493.933z"/>
	<path d="M348.867,511H161.133c-5.12,0-8.533-3.413-8.533-8.533c0-5.12,3.413-8.533,8.533-8.533h187.733
		c5.12,0,8.533,3.413,8.533,8.533C357.4,507.587,353.987,511,348.867,511z"/>
	<path d="M348.867,152.6c-33.28,0-59.733-26.453-59.733-59.733s26.453-59.733,59.733-59.733S408.6,59.587,408.6,92.867
		S382.147,152.6,348.867,152.6z M348.867,50.2c-23.893,0-42.667,18.773-42.667,42.667s18.773,42.667,42.667,42.667
		c23.893,0,42.667-18.773,42.667-42.667S372.76,50.2,348.867,50.2z"/>
	<path d="M425.667,289.133h-153.6c-5.12,0-8.533-3.413-8.533-8.533v-42.667c0-30.72,17.067-59.733,44.373-75.093
		c2.56-0.853,5.12-1.707,7.68,0c21.333,9.387,46.08,9.387,67.413,0c2.56-0.853,5.12-0.853,7.68,0
		c26.453,15.36,43.52,44.373,43.52,75.093V280.6C434.2,285.72,430.787,289.133,425.667,289.133z M280.6,272.067h136.533v-34.133
		c0-23.893-11.947-45.227-32.427-58.027c-23.04,8.533-49.493,8.533-72.533,0c-19.627,12.8-32.427,34.133-32.427,58.027
		L280.6,272.067L280.6,272.067z"/>
	<path d="M348.867,266.947c-3.413,0-5.973-1.707-7.68-5.12l-25.6-51.2c-1.707-3.413-0.853-7.68,1.707-10.24l25.6-25.6
		c3.413-3.413,8.533-3.413,11.947,0l25.6,25.6c2.56,2.56,3.413,6.827,1.707,10.24l-25.6,51.2
		C354.84,265.24,352.28,266.947,348.867,266.947z M333.507,208.92l15.36,30.72l15.36-30.72l-15.36-15.36L333.507,208.92z"/>
	<path d="M459.8,323.267H50.2c-5.12,0-8.533-3.413-8.533-8.533V280.6c0-5.12,3.413-8.533,8.533-8.533h409.6
		c5.12,0,8.533,3.413,8.533,8.533v34.133C468.333,319.853,464.92,323.267,459.8,323.267z M58.733,306.2h392.533v-17.067H58.733
		V306.2z"/>
</g>
</svg>