<?xml version="1.0" encoding="iso-8859-1"?>
<!-- Uploaded to: SVG Repo, www.svgrepo.com, Generator: SVG Repo Mixer Tools -->
<svg height="800px" width="800px" version="1.1" id="Layer_1" xmlns="http://www.w3.org/2000/svg" xmlns:xlink="http://www.w3.org/1999/xlink" 
	 viewBox="0 0 392.727 392.727" xml:space="preserve">
<g>
	<polygon style="fill:#FFFFFF;" points="119.305,201.374 97.907,370.747 294.82,370.747 273.422,201.374 	"/>
	<path style="fill:#FFFFFF;" d="M196.364,55.531c9.374,0,16.937-7.564,16.937-16.937s-7.564-16.873-16.937-16.873
		s-16.937,7.564-16.937,16.937S186.99,55.531,196.364,55.531z"/>
</g>
<path style="fill:#FFC10D;" d="M256.162,135.37c0-3.943-2.327-7.499-5.689-8.857c-6.659-2.715-13.576-4.848-20.687-6.594
	l-24.048,40.404c-4.267,7.111-14.545,7.111-18.747,0l-24.048-40.404c-7.111,1.681-13.964,3.879-20.687,6.594
	c-3.426,1.422-5.689,4.913-5.689,8.857v44.218h119.596V135.37L256.162,135.37z"/>
<g>
	<path style="fill:#194F82;" d="M323.329,370.747h-6.594l-21.398-169.374h3.038c6.012,0,10.925-4.848,10.925-10.925
		s-4.849-10.925-10.925-10.925h-20.428v-44.218c0-12.929-7.628-24.372-19.394-29.156l0,0c-10.279-4.202-21.204-7.24-32.194-9.374
		l0,0c-4.461-0.84-9.051,1.228-11.378,5.172l-18.618,31.483l-18.618-31.354c-2.327-3.943-6.853-5.947-11.378-5.172
		c-11.119,2.004-21.915,5.172-32.194,9.374c-11.83,4.719-19.394,16.162-19.394,29.156v44.218H94.352
		c-6.012,0-10.925,4.848-10.925,10.925c0,6.012,4.848,10.925,10.925,10.925h3.038L75.992,370.877h-6.594
		c-6.012,0-10.925,4.849-10.925,10.925s4.848,10.925,10.925,10.925h253.931c6.012,0,10.925-4.848,10.925-10.925
		C334.19,375.596,329.341,370.747,323.329,370.747z M97.907,370.747l21.398-169.374h154.053l21.398,169.374H97.907z M136.566,135.37
		c0-3.943,2.327-7.499,5.689-8.857c6.659-2.715,13.576-4.848,20.687-6.594l24.048,40.404c4.267,7.111,14.545,7.111,18.747,0
		l24.048-40.404c7.111,1.681,13.964,3.879,20.687,6.594c3.426,1.422,5.689,4.913,5.689,8.857v44.218H136.566V135.37z"/>
	<path style="fill:#194F82;" d="M196.364,77.446c21.333,0,38.723-17.39,38.723-38.723S217.697,0,196.364,0
		S157.64,17.39,157.64,38.723S175.03,77.446,196.364,77.446z M196.364,21.786c9.374,0,16.937,7.564,16.937,16.937
		s-7.564,16.937-16.937,16.937s-16.937-7.564-16.937-16.937S186.99,21.786,196.364,21.786z"/>
</g>
<path style="fill:#56ACE0;" d="M254.158,223.16H138.57l-2.651,20.881h38.4c6.012,0,10.925,4.848,10.925,10.925
	c0,6.012-4.848,10.925-10.925,10.925h-41.18l-2.457,19.394h23.014c6.012,0,10.925,4.848,10.925,10.925
	c0,6.012-4.848,10.925-10.925,10.925h-25.794l-5.236,41.891h147.329L254.158,223.16z"/>
</svg>